<?xml version="1.0" encoding="utf-8"?>
<!-- Generator: Adobe Illustrator 22.1.0, SVG Export Plug-In . SVG Version: 6.00 Build 0)  -->
<svg version="1.1" id="Calque_1" xmlns="http://www.w3.org/2000/svg" xmlns:xlink="http://www.w3.org/1999/xlink" x="0px" y="0px"
	 viewBox="0 0 40 40" style="enable-background:new 0 0 40 40;" xml:space="preserve">
<style type="text/css">
	.st0{fill:#00884E;}
	.st1{fill:#FFFFFF;}
</style>
<circle class="st0" cx="20" cy="20" r="20"/>
<path id="Bénéficiaires_4_" class="st1" d="M20.5,20c3,0,5.5-2.5,5.5-5.5c0-3-2.5-5.5-5.5-5.5c-3,0-5.5,2.5-5.5,5.5
	C15,17.5,17.4,20,20.5,20z M16.5,16.3c-0.6-1.3-0.5-2.7,0.1-4c1.2-2.2,3.4-3,6.2-2c-0.1,0,0.1,0.1,0,0.2c-3.6,1.3-5.3,5.1-5.5,5.8
	c0,0.3-0.2,0.2-0.3,0.2C16.8,16.6,16.6,16.5,16.5,16.3z M24.7,19.4c-1.2,0.9-2.7,1.5-4.3,1.5c-1.6,0-3.1-0.6-4.3-1.5
	c-2.9,0.9-5,3.6-5,6.8V29h3.1v-4c0-0.3,0.3-0.6,0.6-0.6c0.3,0,0.6,0.3,0.6,0.6v4h10.2v-4c0-0.3,0.3-0.6,0.6-0.6
	c0.3,0,0.6,0.3,0.6,0.6v4h3.1v-2.7C29.8,23,27.7,20.3,24.7,19.4z"/>
</svg>
