<?xml version="1.0" encoding="utf-8"?>
<!-- Generator: Adobe Illustrator 21.0.0, SVG Export Plug-In . SVG Version: 6.00 Build 0)  -->
<svg version="1.1" id="Calque_1" xmlns="http://www.w3.org/2000/svg" xmlns:xlink="http://www.w3.org/1999/xlink" x="0px" y="0px"
	 viewBox="0 0 52 52" style="enable-background:new 0 0 52 52;" xml:space="preserve">
<style type="text/css">
	.st0{fill:#DDDDDD;}
	.st1{fill:#3E3E3E;}
	.st2{fill:#FFFFFF;stroke:#00884E;stroke-width:2;stroke-miterlimit:10;}
	.st3{fill:#00884E;}
	.st4{fill:#FFFFFF;}
</style>
<circle class="st0" cx="26" cy="26" r="20"/>
<path id="Bénéficiaires_6_" class="st1" d="M26.5,26c3,0,5.5-2.5,5.5-5.5c0-3-2.5-5.5-5.5-5.5c-3,0-5.5,2.5-5.5,5.5
	C21,23.5,23.4,26,26.5,26z M22.5,22.3c-0.6-1.3-0.5-2.7,0.1-4c1.2-2.2,3.4-3,6.2-2c-0.1,0,0.1,0.1,0,0.2c-3.6,1.3-5.3,5.1-5.5,5.8
	c0,0.3-0.2,0.2-0.3,0.2C22.8,22.6,22.6,22.5,22.5,22.3z M30.7,25.4c-1.2,0.9-2.7,1.5-4.3,1.5c-1.6,0-3.1-0.6-4.3-1.5
	c-2.9,0.9-5,3.6-5,6.8V35h3.1v-4c0-0.3,0.3-0.6,0.6-0.6c0.3,0,0.6,0.3,0.6,0.6v4h10.2v-4c0-0.3,0.3-0.6,0.6-0.6
	c0.3,0,0.6,0.3,0.6,0.6v4h3.1v-2.7C35.8,29,33.7,26.3,30.7,25.4z"/>
<circle class="st2" cx="26" cy="26" r="25"/>
<circle class="st3" cx="26" cy="26" r="20"/>
<g>
	<path id="carte_7_" class="st4" d="M36.2,17H15.7c-1.8,0-3.2,1.4-3.2,3.2V32c0,1.8,1.4,3.2,3.2,3.2h20.5c1.8,0,3.2-1.4,3.2-3.2
		V20.2C39.4,18.4,38.7,17,36.2,17z M38.3,32c0,1.1-1.1,2.1-2.1,2.1H15.8c-1.1,0-2.1-1.1-2.1-2.1V20.2c0-1.1,1.1-2.1,2.1-2.1h20.4
		c1.1,0,2.1,1.1,2.1,2.1V32z"/>
	<path id="puce_6_" class="st4" d="M19,21.3h1.6c0.6,0,1.1,0.4,1.1,1.1v0.5H19V21.3z M19,23.5h2.7v1.1H19V23.5z M15.8,25.5v-3.1
		c0-0.6,0.5-1.2,1.2-1.2h1.5v5.4h-1.5C16.3,26.7,15.8,26.2,15.8,25.5z M20.5,26.7H19v-1.6h2.7v0.5C21.7,26.2,21.2,26.7,20.5,26.7z"
		/>
	<path id="point3_6_" class="st4" d="M32.1,30.7c0,0.4-0.3,0.8-0.7,0.8s-0.6-0.3-0.6-0.8v-0.6c0-0.4,0.3-0.8,0.6-0.8
		s0.7,0.3,0.7,0.8V30.7z M34.1,30.7c0,0.4-0.3,0.8-0.6,0.8s-0.7-0.3-0.7-0.8v-0.6c0-0.4,0.3-0.8,0.7-0.8c0.4,0,0.6,0.3,0.6,0.8V30.7
		z M36.1,30.7c0,0.4-0.3,0.8-0.7,0.8c-0.4,0-0.6-0.3-0.6-0.8v-0.6c0-0.4,0.3-0.8,0.6-0.8c0.4,0,0.7,0.3,0.7,0.8V30.7z"/>
	<path id="point2_6_" class="st4" d="M24.6,30.7c0,0.4-0.3,0.8-0.7,0.8c-0.4,0-0.6-0.3-0.6-0.8v-0.6c0-0.4,0.3-0.8,0.6-0.8
		s0.7,0.3,0.7,0.8V30.7z M26.6,30.7c0,0.4-0.3,0.8-0.6,0.8s-0.7-0.3-0.7-0.8v-0.6c0-0.4,0.3-0.8,0.7-0.8c0.4,0,0.6,0.3,0.6,0.8V30.7
		z M28.7,30.7c0,0.4-0.3,0.8-0.7,0.8s-0.6-0.3-0.6-0.8v-0.6c0-0.4,0.3-0.8,0.6-0.8c0.4,0,0.7,0.3,0.7,0.8V30.7z"/>
	<path id="point1_6_" class="st4" d="M17.1,30.7c0,0.4-0.3,0.8-0.7,0.8s-0.6-0.3-0.6-0.8v-0.6c0-0.4,0.3-0.8,0.6-0.8
		s0.7,0.3,0.7,0.8V30.7z M19.1,30.7c0,0.4-0.3,0.8-0.6,0.8s-0.7-0.3-0.7-0.8v-0.6c0-0.4,0.3-0.8,0.7-0.8c0.4,0,0.6,0.3,0.6,0.8V30.7
		z M21.2,30.7c0,0.4-0.3,0.8-0.7,0.8s-0.6-0.3-0.6-0.8v-0.6c0-0.4,0.3-0.8,0.6-0.8s0.7,0.3,0.7,0.8V30.7z"/>
</g>
</svg>
